<?xml version="1.0" encoding="UTF-8" standalone="no"?>
<svg
   xmlns:dc="http://purl.org/dc/elements/1.1/"
   xmlns:cc="http://creativecommons.org/ns#"
   xmlns:rdf="http://www.w3.org/1999/02/22-rdf-syntax-ns#"
   xmlns:svg="http://www.w3.org/2000/svg"
   xmlns="http://www.w3.org/2000/svg"
   id="svg8"
   version="1.1"
   viewBox="0 0 0.0004 0.0004"
   height="40"
   width="40">
  <defs
     id="defs2" />
  <metadata
     id="metadata5">
    <rdf:RDF>
      <cc:Work
         rdf:about="">
        <dc:format>image/svg+xml</dc:format>
        <dc:type
           rdf:resource="http://purl.org/dc/dcmitype/StillImage" />
        <dc:title></dc:title>
      </cc:Work>
    </rdf:RDF>
  </metadata>
 <g
     id="text30"
     transform="matrix(0.68333253,0,0,0.68333253,2.0159611e-5,6.3473865e-5)">
    <path
       d="m 6.8475874e-5,3.745274e-4 h 1.9112545e-5 v -2.025931e-5 h -7.645015e-6 q -5.733765e-6,0 -9.938526e-6,-3.44025e-6 -3.82251e-6,-3.05801e-6 -6.498267e-6,-8.40953e-6 -2.293506e-6,-5.35151e-6 -3.440259e-6,-1.261428e-5 -1.146753e-6,-7.26277e-6 -1.146753e-6,-1.490779e-5 V 2.613811e-4 q 0,-1.567229e-5 -3.440259e-6,-2.675757e-5 -3.440259e-6,-1.146753e-5 -8.027271e-6,-1.873029e-5 -4.587011e-6,-7.64502e-6 -9.174023e-6,-1.146753e-5 -4.204761e-6,-3.82251e-6 -6.116016e-6,-4.96927e-6 v -7.645e-7 q 1.911255e-6,-1.14675e-6 6.116016e-6,-4.96926e-6 4.587012e-6,-3.82251e-6 9.174023e-6,-1.108528e-5 4.587012e-6,-7.64502e-6 8.027271e-6,-1.87303e-5 3.440259e-6,-1.146753e-5 3.440259e-6,-2.713982e-5 V 8.2869891e-5 q 0,-7.645019e-6 1.146753e-6,-1.4525537e-5 1.146753e-6,-7.262769e-6 3.440259e-6,-1.2614283e-5 2.675757e-6,-5.733765e-6 6.498267e-6,-8.791773e-6 4.204761e-6,-3.440259e-6 9.938526e-6,-3.440259e-6 h 7.645015e-6 V 2.3238737e-5 H 6.8475874e-5 q -1.6054542e-5,0 -2.4846314e-5,1.2996534e-5 -8.791773e-6,1.2996533e-5 -8.791773e-6,3.478484e-5 v 5.6955399e-5 q 0,1.146753e-5 -1.146753e-6,2.255281e-5 -1.146753e-6,1.108528e-5 -4.204761e-6,1.987705e-5 -3.058008e-6,8.40952e-6 -8.409522e-6,1.376103e-5 -5.351514e-6,4.96927e-6 -1.37610361e-5,4.96927e-6 v 2.02593e-5 q 8.4095221e-6,0 1.37610361e-5,5.35151e-6 5.351514e-6,4.96927e-6 8.409522e-6,1.376104e-5 3.058008e-6,8.40952e-6 4.204761e-6,1.94948e-5 1.146753e-6,1.108528e-5 1.146753e-6,2.255281e-5 v 5.619089e-5 q 0,2.178831e-5 8.791773e-6,3.478484e-5 8.791772e-6,1.299654e-5 2.4846314e-5,1.299654e-5 z"
       id="path28" />
  </g>
  <g
     id="text30-2"
     transform="matrix(0.68199194,0,0,0.68199194,9.6799612e-6,6.3148499e-5)">
    <path
       d="m 1.4947225e-4,3.7505016e-4 h 1.911255e-5 v -2.02593e-5 h -7.64502e-6 q -5.73377e-6,0 -9.93853e-6,-3.44026e-6 -3.82251e-6,-3.05801e-6 -6.49827e-6,-8.40952e-6 -2.2935e-6,-5.35152e-6 -3.44025e-6,-1.261429e-5 -1.14676e-6,-7.26276e-6 -1.14676e-6,-1.490778e-5 v -5.351514e-5 q 0,-1.567229e-5 -3.44026e-6,-2.675757e-5 -3.44026e-6,-1.146753e-5 -8.02727e-6,-1.87303e-5 -4.58701e-6,-7.64502e-6 -9.17402e-6,-1.146753e-5 -4.20476e-6,-3.82251e-6 -6.11602e-6,-4.96926e-6 v -7.6451e-7 q 1.91126e-6,-1.14675e-6 6.11602e-6,-4.96926e-6 4.58701e-6,-3.82251e-6 9.17402e-6,-1.108528e-5 4.58701e-6,-7.64502e-6 8.02727e-6,-1.87303e-5 3.44026e-6,-1.146753e-5 3.44026e-6,-2.713982e-5 V 8.3392654e-5 q 0,-7.645019e-6 1.14676e-6,-1.4525537e-5 1.14675e-6,-7.262769e-6 3.44025e-6,-1.2614283e-5 2.67576e-6,-5.733765e-6 6.49827e-6,-8.791773e-6 4.20476e-6,-3.440259e-6 9.93853e-6,-3.440259e-6 h 7.64502e-6 V 2.37615e-5 h -1.911255e-5 q -1.605454e-5,0 -2.484632e-5,1.2996534e-5 -8.79177e-6,1.2996533e-5 -8.79177e-6,3.478484e-5 v 5.6955396e-5 q 0,1.146753e-5 -1.14675e-6,2.255281e-5 -1.14676e-6,1.108528e-5 -4.20476e-6,1.987705e-5 -3.05801e-6,8.40952e-6 -8.40953e-6,1.376104e-5 -5.351509e-6,4.96926e-6 -1.3761031e-5,4.96926e-6 v 2.02593e-5 q 8.409522e-6,0 1.3761031e-5,5.35152e-6 5.35152e-6,4.96926e-6 8.40953e-6,1.376103e-5 3.058e-6,8.40952e-6 4.20476e-6,1.94948e-5 1.14675e-6,1.108528e-5 1.14675e-6,2.255281e-5 v 5.61909e-5 q 0,2.17883e-5 8.79177e-6,3.478484e-5 8.79178e-6,1.299653e-5 2.484632e-5,1.299653e-5 z"
       id="path31"/>
  </g>
  <g
     transform="matrix(0.68510991,0,0,0.68510991,1.1825628e-4,6.2777094e-5)"
     id="text125">
    <path
       d="M 3.1218555e-4,2.419547e-5 H 2.93125e-4 v 2.0204182e-5 h 7.62422e-6 q 5.71817e-6,0 9.53028e-6,3.430899e-6 4.19332e-6,3.049688e-6 6.48058e-6,8.767853e-6 2.66848e-6,5.336954e-6 3.81211e-6,1.2579963e-5 1.14364e-6,6.861798e-6 1.14364e-6,1.4486018e-5 v 5.3750745e-5 q 0,1.562966e-5 3.4309e-6,2.706599e-5 3.4309e-6,1.105511e-5 8.00543e-6,1.867933e-5 4.57453e-6,7.24301e-6 8.76785e-6,1.105512e-5 4.57453e-6,3.81211e-6 6.48059e-6,4.95575e-6 v 7.6242e-7 q -1.90606e-6,1.14363e-6 -6.48059e-6,4.95574e-6 -4.19332e-6,3.81211e-6 -8.76785e-6,1.143633e-5 -4.57453e-6,7.24301e-6 -8.00543e-6,1.867934e-5 -3.4309e-6,1.105512e-5 -3.4309e-6,2.668477e-5 v 5.336954e-5 q 0,7.62422e-6 -1.14364e-6,1.486723e-5 -1.14363e-6,7.24301e-6 -3.81211e-6,1.257996e-5 -2.28726e-6,5.33695e-6 -6.48058e-6,8.38664e-6 -3.81211e-6,3.4309e-6 -9.53028e-6,3.4309e-6 H 2.93125e-4 v 2.020418e-5 h 1.906055e-5 q 1.601086e-5,0 2.477872e-5,-1.296117e-5 8.76785e-6,-1.296117e-5 8.76785e-6,-3.46902e-5 v -5.641923e-5 q 0,-1.143633e-5 1.14363e-6,-2.249145e-5 1.14364e-6,-1.105512e-5 4.19332e-6,-1.944176e-5 3.04969e-6,-8.76785e-6 8.38665e-6,-1.372359e-5 5.33695e-6,-5.33696e-6 1.372359e-5,-5.33696e-6 v -2.020418e-5 q -8.38664e-6,0 -1.372359e-5,-4.95574e-6 -5.33696e-6,-5.33696e-6 -8.38665e-6,-1.37236e-5 -3.04968e-6,-8.76785e-6 -4.19332e-6,-1.982297e-5 -1.14363e-6,-1.105512e-5 -1.14363e-6,-2.249145e-5 V 7.1846844e-5 q 0,-2.1729027e-5 -8.76785e-6,-3.46902e-5 Q 3.2819641e-4,2.419547e-5 3.1218555e-4,2.419547e-5 Z"
       id="path163" />
  </g>
  <g
     transform="matrix(0.68456879,0,0,0.68456879,1.1413558e-4,6.2934749e-5)"
     id="text125-9">
    <path
       d="m 2.504204e-4,2.3984297e-5 h -1.91007e-5 v 2.0246742e-5 h 7.64028e-6 q 5.73021e-6,0 9.55035e-6,3.438126e-6 4.20216e-6,3.056112e-6 6.49424e-6,8.786322e-6 2.6741e-6,5.348196e-6 3.82014e-6,1.2606462e-5 1.14604e-6,6.876252e-6 1.14604e-6,1.4516532e-5 v 5.3863969e-5 q 0,1.566258e-5 3.43813e-6,2.7123e-5 3.43813e-6,1.10784e-5 8.02229e-6,1.871868e-5 4.58417e-6,7.25827e-6 8.78633e-6,1.107841e-5 4.58416e-6,3.82014e-6 6.49423e-6,4.96618e-6 v 7.6403e-7 q -1.91007e-6,1.14604e-6 -6.49423e-6,4.96618e-6 -4.20216e-6,3.82014e-6 -8.78633e-6,1.146042e-5 -4.58416e-6,7.25827e-6 -8.02229e-6,1.871869e-5 -3.43813e-6,1.10784e-5 -3.43813e-6,2.674098e-5 v 5.348196e-5 q 0,7.64028e-6 -1.14604e-6,1.489854e-5 -1.14604e-6,7.25827e-6 -3.82014e-6,1.260646e-5 -2.29208e-6,5.3482e-6 -6.49424e-6,8.40431e-6 -3.82014e-6,3.43813e-6 -9.55035e-6,3.43813e-6 h -7.64028e-6 v 2.024674e-5 h 1.91007e-5 q 1.604459e-5,0 2.483091e-5,-1.298848e-5 8.78633e-6,-1.298847e-5 8.78633e-6,-3.476327e-5 v -5.653807e-5 q 0,-1.146042e-5 1.14604e-6,-2.253883e-5 1.14604e-6,-1.10784e-5 4.20215e-6,-1.948271e-5 3.05611e-6,-8.78632e-6 8.40431e-6,-1.37525e-5 5.3482e-6,-5.3482e-6 1.37525e-5,-5.3482e-6 v -2.024674e-5 q -8.4043e-6,0 -1.37525e-5,-4.96618e-6 -5.3482e-6,-5.3482e-6 -8.40431e-6,-1.375251e-5 -3.05611e-6,-8.78632e-6 -4.20215e-6,-1.986473e-5 -1.14604e-6,-1.10784e-5 -1.14604e-6,-2.253882e-5 V 7.1736047e-5 q 0,-2.1774798e-5 -8.78633e-6,-3.4763274e-5 -8.78632e-6,-1.2988476e-5 -2.483091e-5,-1.2988476e-5 z"
       id="path166" />
  </g>
  <g
     style="font-style:normal;font-weight:normal;font-size:0.000294395px;line-height:1.25;font-family:sans-serif;fill:#000000;fill-opacity:1;stroke:none;stroke-width:0.735988"
     id="text41">
    <path
       id="path43"
       style="font-style:normal;font-variant:normal;font-weight:normal;font-stretch:normal;font-family:Skia;-inkscape-font-specification:Skia;stroke-width:0.735988"
       d="M 2.7428045e-4,1.8083121e-4 H 2.360436e-4 q -3.0187e-6,9.48734e-6 -6.0374e-6,1.868718e-5 -2.87495e-6,9.19984e-6 -5.31866e-6,1.595598e-5 h 3.363693e-5 v 1.494974e-5 h -3.838059e-5 q -4.74367e-6,1.437476e-5 -9.3436e-6,2.874952e-5 -4.59992e-6,1.4231e-5 -5.03116e-6,1.581223e-5 l -1.293728e-5,-5.17492e-6 q 5.7499e-7,-1.72497e-6 4.31243e-6,-1.293728e-5 3.88118e-6,-1.135605e-5 8.7686e-6,-2.644955e-5 h -3.205571e-5 q -4.74367e-6,1.437476e-5 -9.34359e-6,2.860577e-5 -4.45617e-6,1.423101e-5 -5.03116e-6,1.595598e-5 l -1.293728e-5,-5.17492e-6 q 5.7499e-7,-1.58122e-6 4.31242e-6,-1.293728e-5 3.88119e-6,-1.135605e-5 8.7686e-6,-2.644955e-5 h -3.334943e-5 v -1.494974e-5 h 3.823685e-5 q 3.44994e-6,-1.034983e-5 5.7499e-6,-1.739346e-5 2.44371e-6,-7.04363e-6 5.60616e-6,-1.72497e-5 H 1.423202e-4 v -1.494975e-5 h 3.823684e-5 q 4.59993e-6,-1.408726e-5 9.0561e-6,-2.774328e-5 4.45618e-6,-1.379976e-5 4.88742e-6,-1.523724e-5 l 1.293728e-5,4.59992e-6 q -4.3124e-7,1.29373e-6 -4.16868e-6,1.250604e-5 -3.73744e-6,1.106856e-5 -8.62485e-6,2.587456e-5 h 3.219945e-5 q 4.59992e-6,-1.408726e-5 9.05609e-6,-2.774328e-5 4.45618e-6,-1.379976e-5 4.88742e-6,-1.523724e-5 l 1.293728e-5,4.59992e-6 q -2.8749e-7,8.6249e-7 -4.16868e-6,1.221855e-5 -3.73743e-6,1.135605e-5 -8.62485e-6,2.616205e-5 h 3.334943e-5 z m -5.232411e-5,0 h -3.219945e-5 q -3.0187e-6,9.48734e-6 -6.0374e-6,1.868718e-5 -2.87495e-6,9.19984e-6 -5.31866e-6,1.595598e-5 h 3.219945e-5 q 3.44995e-6,-1.034983e-5 5.74991e-6,-1.739346e-5 2.4437e-6,-7.04363e-6 5.60615e-6,-1.72497e-5 z" />
  </g>
  <path
     transform="matrix(1e-5,0,0,1e-5,0,0)"
     id="path96"
     d="M 10.194653,31.553382 C 9.7524423,31.28373 9.3884812,30.80298 9.1531516,30.177684 9.0407903,29.879127 8.9631708,28.641106 8.9043922,26.210001 8.80959,22.288953 8.7154969,21.733306 8.0270721,21.029168 7.8039534,20.800957 7.5109825,20.630448 7.3419862,20.630448 c -0.274402,0 -0.2952629,-0.04709 -0.2952629,-0.666447 0,-0.642778 0.013343,-0.669115 0.3757113,-0.741588 0.5073179,-0.101464 0.9477057,-0.606929 1.193406,-1.36976 0.1607493,-0.499081 0.2192216,-1.389764 0.2781342,-4.236702 l 0.074595,-3.60477 0.3726454,-0.7348827 C 9.818295,8.3354637 10.432926,7.9834608 11.598633,7.9834608 h 0.779663 v 0.6199503 c 0,0.5818403 -0.01943,0.6199504 -0.316132,0.6199504 -0.173873,0 -0.479094,0.084271 -0.67827,0.1872684 -0.765923,0.3960744 -0.873662,0.9201461 -0.969713,4.7169511 l -0.08172,3.230353 -0.4689748,0.948726 c -0.2744005,0.555106 -0.6216384,1.057431 -0.836933,1.210734 -0.4503628,0.320687 -0.4586052,0.448106 -0.049788,0.769682 0.3736774,0.293935 0.7850156,0.927363 1.1086688,1.707263 0.196346,0.473132 0.243899,1.038621 0.312795,3.719702 0.05308,2.065556 0.138558,3.346992 0.246549,3.696049 0.209016,0.6756 0.741991,1.139564 1.309067,1.139564 h 0.424452 v 0.61995 0.61995 l -0.898928,-4.95e-4 c -0.663876,-3.72e-4 -0.999803,-0.06198 -1.284715,-0.235709 z"
     style="fill:#403428;stroke-width:0.012399;fill-opacity:1" />
  <path
     transform="matrix(1e-5,0,0,1e-5,0,0)"
     id="path921"
     d="M 6.103619,31.784437 C 5.5785692,31.627379 4.9549867,30.966697 4.7150174,30.313222 4.5460519,29.853102 4.4890299,29.053095 4.4181338,26.148006 4.3463048,23.204688 4.2914672,22.446113 4.1158927,21.967067 3.8832334,21.332268 3.193319,20.630448 2.8019485,20.630448 c -0.2126924,0 -0.2436657,-0.08669 -0.2436657,-0.681945 0,-0.626982 0.02276,-0.681946 0.2823866,-0.681946 0.6628504,0 1.2072487,-0.770644 1.4421873,-2.041544 0.074402,-0.40248 0.1352771,-1.966686 0.1352771,-3.476014 0,-1.509328 0.0601,-3.075304 0.1335554,-3.479948 C 4.8377791,8.6930715 5.6361186,7.9834608 7.123067,7.9834608 h 0.7667888 v 0.6199503 c 0,0.5818403 -0.019433,0.6199504 -0.3161325,0.6199504 -0.5089611,0 -0.9971812,0.3260822 -1.2449037,0.8314715 -0.1991736,0.406342 -0.2416337,0.909571 -0.3116965,3.694166 -0.071327,2.834833 -0.1125521,3.311263 -0.3417247,3.94922 -0.3253722,0.905751 -0.6699615,1.469435 -1.1401514,1.865073 -0.428731,0.360754 -0.4476944,0.45996 -0.1262898,0.66068 0.3906984,0.243996 1.0214489,1.258791 1.2854002,2.068042 0.2087901,0.640132 0.2587319,1.241673 0.3252832,3.917987 0.06398,2.572891 0.1160867,3.231079 0.2797793,3.53401 0.2892735,0.535332 0.5959955,0.772687 1.1254732,0.870946 0.4621173,0.08576 0.4649627,0.08999 0.4649627,0.692436 v 0.606152 l -0.7129429,-0.01065 c -0.3921186,-0.0059 -0.8751008,-0.05917 -1.0732939,-0.11845 z"
     style="fill:#403428;fill-opacity:1;stroke-width:0.012399" />
  <path
     transform="matrix(1e-5,0,0,1e-5,0,0)"
     id="path923"
     d="M 15.305829,27.167784 14.73395,26.93309 15.34158,25.11931 c 0.334197,-0.99758 0.60763,-1.885616 0.60763,-1.973416 0,-0.122 -0.380007,-0.159635 -1.61187,-0.159635 h -1.611871 v -0.678716 -0.678715 l 1.880053,-0.03423 1.880053,-0.03423 0.537753,-1.608236 c 0.295764,-0.884529 0.537753,-1.679616 0.537753,-1.766858 0,-0.120703 -0.385331,-0.158623 -1.611871,-0.158623 H 14.33734 V 17.344705 16.66276 l 1.890848,-1.37e-4 1.890849,-1.36e-4 0.674001,-2.11535 c 0.739938,-2.322295 0.639235,-2.201305 1.545433,-1.856769 l 0.308526,0.117301 -0.613032,1.829906 c -0.337168,1.006448 -0.613033,1.873843 -0.613033,1.927545 0,0.0537 0.746157,0.09764 1.658127,0.09764 h 1.658127 l 0.647107,-2.014839 c 0.355909,-1.108161 0.692628,-2.062708 0.748265,-2.121214 0.106335,-0.111821 0.944602,0.115492 1.049034,0.284466 0.03331,0.0539 -0.21699,0.92652 -0.556229,1.93915 -0.339239,1.012631 -0.616798,1.857187 -0.616798,1.876792 0,0.01961 0.75324,0.03565 1.673866,0.03565 h 1.673866 v 0.681945 0.681946 h -1.902414 -1.902414 l -0.528644,1.636263 c -0.290754,0.899946 -0.556548,1.708981 -0.590653,1.797856 -0.04909,0.127918 0.289581,0.161593 1.625123,0.161593 h 1.687131 v 0.681945 0.681945 h -1.899745 -1.899745 l -0.710389,2.169827 c -0.390715,1.193404 -0.756517,2.169826 -0.812895,2.169826 -0.200409,0 -1.00072,-0.376895 -1.00072,-0.471274 0,-0.05279 0.278978,-0.928726 0.619951,-1.946532 0.340973,-1.017807 0.61995,-1.868172 0.61995,-1.889701 0,-0.02153 -0.757105,-0.02362 -1.682455,-0.0046 l -1.682456,0.0345 -0.709107,2.177112 -0.709107,2.177111 z m 6.33682,-7.188284 c 0.297394,-0.903577 0.567408,-1.71423 0.60003,-1.80145 0.04674,-0.12497 -0.300078,-0.15125 -1.636297,-0.12399 l -1.695611,0.03459 -0.549736,1.673866 c -0.302355,0.920626 -0.550239,1.715712 -0.550855,1.766858 -6.2e-4,0.05115 0.739778,0.09299 1.645317,0.09299 h 1.646436 z"
     style="fill:#403428;fill-opacity:1;stroke-width:0.012399" />
  <path
     transform="matrix(1e-5,0,0,1e-5,0,0)"
     id="path925"
     d="m 27.356297,31.293594 c 0,-0.584716 0.01829,-0.61995 0.321842,-0.61995 0.478303,0 1.010141,-0.366057 1.253084,-0.862483 0.178816,-0.36539 0.229337,-0.972042 0.299903,-3.60116 0.09202,-3.428662 0.164434,-3.857321 0.853154,-5.050653 0.206012,-0.356954 0.513426,-0.739991 0.683143,-0.851194 0.169717,-0.111202 0.308576,-0.241583 0.308576,-0.289734 0,-0.04815 -0.245104,-0.343353 -0.544676,-0.656004 -1.037228,-1.082512 -1.300389,-2.296954 -1.310422,-6.047382 -0.0034,-1.263649 -0.06725,-2.513942 -0.142215,-2.783959 -0.185438,-0.6679278 -0.84005,-1.3077135 -1.33802,-1.3077135 -0.378583,0 -0.384369,-0.00933 -0.384369,-0.6199504 V 7.9834608 h 0.779663 c 1.16586,0 1.780363,0.3519893 2.257419,1.2930575 l 0.372645,0.7351017 0.07466,3.666546 c 0.06218,3.054024 0.11092,3.76547 0.291728,4.25871 0.261888,0.714424 0.842601,1.329681 1.255025,1.329681 0.281506,0 0.300437,0.04297 0.300437,0.681946 0,0.59526 -0.03097,0.681945 -0.243666,0.681945 -0.391229,0 -1.081272,0.701836 -1.31416,1.336619 -0.177884,0.484857 -0.227512,1.214065 -0.289364,4.251772 l -0.07466,3.666545 -0.374766,0.732727 c -0.49847,0.974584 -1.035448,1.290561 -2.198028,1.293394 l -0.836933,0.002 z"
     style="fill:#403428;fill-opacity:1;stroke-width:0.012399" />
  <path
     transform="matrix(1e-5,0,0,1e-5,0,0)"
     id="path927"
     d="m 31.94393,31.231599 v -0.681945 h 0.442116 c 0.612536,0 0.876501,-0.171886 1.196437,-0.779084 0.257266,-0.488258 0.280517,-0.735874 0.351804,-3.746554 0.07947,-3.356159 0.108391,-3.547421 0.714376,-4.723679 0.137114,-0.266147 0.448107,-0.674861 0.691095,-0.908254 l 0.441797,-0.42435 -0.538081,-0.575252 c -0.607966,-0.649965 -0.702216,-0.805728 -1.014003,-1.6758 -0.182703,-0.509853 -0.235418,-1.192456 -0.296836,-3.843692 -0.06894,-2.975925 -0.09513,-3.262505 -0.340685,-3.727997 C 33.246204,9.4895764 33.051893,9.3393193 32.444753,9.2578847 L 31.94393,9.1907102 V 8.5870855 7.9834608 h 0.809918 c 0.96352,0 1.504136,0.2011884 1.943407,0.7232328 0.609507,0.7243577 0.696643,1.2902252 0.75735,4.9183154 0.04512,2.696255 0.09736,3.48044 0.268449,4.029677 0.273278,0.877269 0.728843,1.478148 1.190714,1.570522 0.345813,0.06916 0.361735,0.10168 0.361735,0.738793 0,0.567725 -0.03426,0.666447 -0.231259,0.666447 -0.370507,0 -0.890823,0.489797 -1.141458,1.074507 -0.348364,0.8127 -0.487134,2.291812 -0.487134,5.192231 0,2.802572 -0.111708,3.536135 -0.640942,4.208948 -0.398434,0.506526 -1.152073,0.801511 -2.055842,0.804688 l -0.774938,0.0027 z"
     style="fill:#403428;fill-opacity:1;stroke-width:0.012399" />
</svg>
